# xmcd CD database file
#
# Track frame offsets:
#	150
#	11422
#	28307
#	43075
#	56955
#	73607
#	86217
#	94817
#	107787
#	119640
#	135835
#	146105
#	167902
#	179542
#	195122
#	205895
#	215885
#	228270
#
# Disc length: 3257 seconds
#
# Revision: 0
# Processed by: cddbd v1.4PL0 Copyright (c) Steve Scherf et al.
# Submitted via: CDex 1.50
#
DISCID=110cb712
DTITLE=Jean-Pierre BERTRAND - Sunny Boogie
DYEAR=1999
DGENRE=Jazz
TTITLE0=Congas Boogie
TTITLE1=Boogie Woogie Stomp
TTITLE2=Minor Shuffle
TTITLE3=Death Ray Boogie
TTITLE4=Tishomingo Blues
TTITLE5=Bugle Boogie
TTITLE6=Rock'n Roll Stuff
TTITLE7=Something Stupid
TTITLE8=Boogie Des Grands Crus
TTITLE9=Samba Boogie
TTITLE10=Exactly Like You
TTITLE11=Slow Mood
TTITLE12=Happy Tune
TTITLE13=Yancey Special
TTITLE14=In The Back Room
TTITLE15=How Long Blues
TTITLE16=In A Little Spanish Town
TTITLE17=Drum Breaks Boogie
EXTD=YEAR: 1999
EXTT0=
EXTT1=
EXTT2=
EXTT3=
EXTT4=
EXTT5=
EXTT6=
EXTT7=
EXTT8=
EXTT9=
EXTT10=
EXTT11=
EXTT12=
EXTT13=
EXTT14=
EXTT15=
EXTT16=
EXTT17=
PLAYORDER=
